# xmcd
#
# Track frame offsets:
#       150
#       11548
#       26988
#       47358
#       65993
#       90819
#       112472
#       143352
#       167530
#       192656
#
# Disc length: 2906 seconds
#
# Revision: 0
# Processed by: cddbd v1.5.2PL0 Copyright (c) Steve Scherf et al.
# Submitted via: WaveLab 4.01
#
DISCID=840b580a
DTITLE=Redvers Bailey - Scrapbook
DYEAR=2007
DGENRE=Indie
TTITLE0=01 in pursuit of something beautiful
TTITLE1=02 Serendipity (master)
TTITLE2=03 The Vortex Song (master)
TTITLE3=04 Sunspots (master)
TTITLE4=05 Touchpaper Phoenix (master)
TTITLE5=06 Mockingbird (master)
TTITLE6=07 Rosies Garden (master)
TTITLE7=08 Naked (master)
TTITLE8=09 Miracles (master)
TTITLE9=10 Shed The Dead Wood (master)
EXTD=
EXTT0=
EXTT1=
EXTT2=
EXTT3=
EXTT4=
EXTT5=
EXTT6=
EXTT7=
EXTT8=
EXTT9=
PLAYORDER=
